<?xml version="1.0" encoding="UTF-8"?><svg width="22px" height="16px" viewBox="0 0 22 16" version="1.1" xmlns="http://www.w3.org/2000/svg" xmlns:xlink="http://www.w3.org/1999/xlink">    <title>Icons / Media Controls / Closed Caption / Dark BG - 24</title>    <g id="Page-1" stroke="none" stroke-width="1" fill="none" fill-rule="evenodd">        <g id="1.3-ICONS-/-On-Dark" transform="translate(-387.000000, -5675.000000)">            <g id="Group" transform="translate(386.000000, 5671.000000)">                <g id="Group-6" transform="translate(2.000000, 5.000000)">                    <path d="M17.5,7.8091 L17.493,7.9151 C17.463,8.3841 17.361,8.8171 17.19,9.2021 C17.019,9.5901 16.783,9.9301 16.488,10.2131 C16.195,10.4961 15.846,10.7171 15.449,10.8711 C15.053,11.0251 14.612,11.1031 14.141,11.1031 C13.56,11.1031 13.028,10.9941 12.563,10.7781 C12.099,10.5611 11.699,10.2631 11.378,9.8911 C11.056,9.5171 10.807,9.0781 10.637,8.5841 C10.467,8.0931 10.381,7.5591 10.381,7.0001 C10.381,6.4481 10.467,5.9181 10.637,5.4261 C10.807,4.9331 11.056,4.4931 11.377,4.1201 C11.699,3.7471 12.098,3.4471 12.562,3.2281 C13.025,3.0081 13.557,2.8971 14.141,2.8971 C14.575,2.8971 14.992,2.9581 15.378,3.0781 C15.771,3.2011 16.117,3.3791 16.411,3.6091 C16.708,3.8391 16.953,4.1251 17.138,4.4571 C17.322,4.7881 17.438,5.1721 17.482,5.5981 L17.494,5.7081 L15.968,5.7081 L15.948,5.6331 C15.895,5.4241 15.818,5.2261 15.722,5.0461 C15.628,4.8721 15.506,4.7191 15.358,4.5931 C15.214,4.4671 15.039,4.3671 14.839,4.2951 C14.64,4.2251 14.405,4.1891 14.141,4.1891 C13.753,4.1891 13.414,4.2671 13.134,4.4221 C12.853,4.5791 12.621,4.7901 12.446,5.0491 C12.267,5.3141 12.134,5.6191 12.049,5.9541 C11.962,6.2941 11.917,6.6461 11.917,7.0001 C11.917,7.3531 11.962,7.7051 12.049,8.0451 C12.134,8.3811 12.268,8.6851 12.446,8.9501 C12.621,9.2101 12.853,9.4211 13.134,9.5771 C13.414,9.7321 13.753,9.8101 14.141,9.8101 C14.424,9.8101 14.677,9.7621 14.892,9.6641 C15.105,9.5671 15.293,9.4311 15.446,9.2611 C15.601,9.0901 15.724,8.8861 15.812,8.6551 C15.901,8.4231 15.961,8.1691 15.988,7.8991 L15.997,7.8091 L17.5,7.8091 Z M8.116,7.8091 L9.619,7.8091 L9.612,7.9151 C9.582,8.3841 9.48,8.8171 9.31,9.2021 C9.138,9.5901 8.901,9.9301 8.607,10.2131 C8.314,10.4961 7.965,10.7171 7.568,10.8711 C7.172,11.0251 6.731,11.1031 6.26,11.1031 C5.679,11.1031 5.147,10.9941 4.682,10.7781 C4.218,10.5611 3.818,10.2631 3.497,9.8911 C3.175,9.5171 2.926,9.0781 2.756,8.5841 C2.586,8.0931 2.5,7.5591 2.5,7.0001 C2.5,6.4481 2.586,5.9181 2.756,5.4261 C2.926,4.9331 3.175,4.4931 3.496,4.1201 C3.818,3.7471 4.217,3.4471 4.681,3.2281 C5.145,3.0081 5.676,2.8971 6.26,2.8971 C6.695,2.8971 7.112,2.9581 7.498,3.0781 C7.89,3.2011 8.237,3.3791 8.53,3.6091 C8.827,3.8391 9.072,4.1251 9.257,4.4571 C9.441,4.7881 9.557,5.1721 9.602,5.5981 L9.613,5.7081 L8.087,5.7081 L8.067,5.6331 C8.014,5.4241 7.937,5.2261 7.841,5.0461 C7.747,4.8721 7.625,4.7201 7.479,4.5931 C7.332,4.4661 7.157,4.3661 6.959,4.2951 C6.759,4.2251 6.524,4.1891 6.26,4.1891 C5.872,4.1891 5.533,4.2671 5.254,4.4221 C4.973,4.5791 4.74,4.7891 4.565,5.0491 C4.388,5.3111 4.254,5.6161 4.168,5.9541 C4.081,6.2941 4.036,6.6461 4.036,7.0001 C4.036,7.3531 4.081,7.7051 4.168,8.0451 C4.254,8.3831 4.388,8.6881 4.565,8.9501 C4.74,9.2101 4.973,9.4211 5.254,9.5771 C5.533,9.7321 5.872,9.8101 6.26,9.8101 C6.543,9.8101 6.796,9.7621 7.011,9.6641 C7.225,9.5681 7.411,9.4321 7.565,9.2611 C7.722,9.0881 7.845,8.8841 7.931,8.6561 C8.021,8.4231 8.08,8.1691 8.107,7.8991 L8.116,7.8091 Z" id="Fill-2" fill="#FFFFFF"></path>                    <path d="M17.5,13.75 L2.5,13.75 C1.258,13.75 0.25,12.743 0.25,11.5 L0.25,2.5 C0.25,1.257 1.258,0.25 2.5,0.25 L17.5,0.25 C18.742,0.25 19.75,1.257 19.75,2.5 L19.75,11.5 C19.75,12.743 18.742,13.75 17.5,13.75 Z" id="Stroke-4" stroke="#FFFFFF" stroke-width="1.5"></path>                </g>            </g>        </g>    </g></svg>